<svg width="900" height="900" viewBox="0 0 900 900" fill="none" xmlns="http://www.w3.org/2000/svg">
  <rect width="900" height="900" rx="64" fill="#090B15"/>
  <circle cx="450" cy="450" r="320" fill="url(#paint0_radial)" fill-opacity="0.9"/>
  <circle cx="450" cy="450" r="220" fill="url(#paint1_radial)"/>
  <path d="M450 104L497 232L616 149L579 278L725 269L618 356L756 430L608 459L690 590L552 534L544 702L450 590L356 702L348 534L210 590L292 459L144 430L282 356L175 269L321 278L284 149L403 232L450 104Z" fill="url(#paint2_linear)" fill-opacity="0.95"/>
  <path d="M450 205L483 309L583 256L548 357L653 364L560 423L651 487L541 507L596 615L494 564L473 676L450 584L427 676L406 564L304 615L359 507L249 487L340 423L247 364L352 357L317 256L417 309L450 205Z" fill="#0F1326" fill-opacity="0.9"/>
  <path d="M450 272L473 338L540 307L516 376L584 380L524 421L582 463L510 476L548 547L482 515L470 593L450 531L430 593L418 515L352 547L390 476L318 463L376 421L316 380L384 376L360 307L427 338L450 272Z" fill="url(#paint3_linear)"/>
  <g opacity="0.9">
    <path d="M148 231C251 266 308 307 349 402" stroke="#7EE7FF" stroke-width="15" stroke-linecap="round"/>
    <path d="M752 231C649 266 592 307 551 402" stroke="#7EE7FF" stroke-width="15" stroke-linecap="round"/>
    <path d="M210 717C296 656 351 612 391 538" stroke="#FFCF63" stroke-width="13" stroke-linecap="round"/>
    <path d="M690 717C604 656 549 612 509 538" stroke="#FFCF63" stroke-width="13" stroke-linecap="round"/>
  </g>
  <defs>
    <radialGradient id="paint0_radial" cx="0" cy="0" r="1" gradientUnits="userSpaceOnUse" gradientTransform="translate(450 450) rotate(90) scale(320)">
      <stop stop-color="#F7A511" stop-opacity="0.66"/>
      <stop offset="0.55" stop-color="#EF6A1A" stop-opacity="0.28"/>
      <stop offset="1" stop-color="#090B15" stop-opacity="0"/>
    </radialGradient>
    <radialGradient id="paint1_radial" cx="0" cy="0" r="1" gradientUnits="userSpaceOnUse" gradientTransform="translate(450 450) rotate(90) scale(220)">
      <stop stop-color="#FFF6C8"/>
      <stop offset="0.52" stop-color="#FFD36B"/>
      <stop offset="1" stop-color="#FF8F1F" stop-opacity="0"/>
    </radialGradient>
    <linearGradient id="paint2_linear" x1="450" y1="104" x2="450" y2="702" gradientUnits="userSpaceOnUse">
      <stop stop-color="#FFF6C8"/>
      <stop offset="0.38" stop-color="#FFD766"/>
      <stop offset="1" stop-color="#FF8B2B"/>
    </linearGradient>
    <linearGradient id="paint3_linear" x1="450" y1="272" x2="450" y2="593" gradientUnits="userSpaceOnUse">
      <stop stop-color="#FFFDF0"/>
      <stop offset="1" stop-color="#FFB13A"/>
    </linearGradient>
  </defs>
</svg>
